<svg aria-hidden="true" style="position: absolute; width: 0; height: 0; overflow: hidden;" version="1.1" xmlns="http://www.w3.org/2000/svg" xmlns:xlink="http://www.w3.org/1999/xlink">
<defs>
<symbol id="icon-close_modal" viewBox="0 0 32 32">
<path d="M32 3.223l-3.223-3.223-12.777 12.777-12.777-12.777-3.223 3.223 12.777 12.777-12.777 12.777 3.223 3.223 12.777-12.777 12.777 12.777 3.223-3.223-12.777-12.777 12.777-12.777z"></path>
</symbol>
<symbol id="icon-dream-team" viewBox="0 0 32 32">
<path d="M9.6 6.098l-0.411 0.411v4.832l0.218 0.226h-0.21c-0.113 0-0.214-0.016-0.23-0.040-0.012-0.020 0.024-0.145 0.081-0.278s0.089-0.274 0.073-0.314c-0.040-0.117-0.387-0.455-0.463-0.455-0.044 0-0.129 0.081-0.206 0.189-0.153 0.218-0.601 0.802-0.713 0.923-0.105 0.113-0.193 0.129-0.931 0.157-0.729 0.028-0.802 0.040-0.802 0.125 0 0.117 0.161 0.359 0.31 0.459 0.129 0.089 0.193 0.101 0.484 0.101 0.202 0 0.335 0.016 0.335 0.040s-0.044 0.109-0.101 0.189c-0.056 0.081-0.101 0.173-0.101 0.206s-0.036 0.089-0.081 0.129c-0.044 0.040-0.081 0.105-0.081 0.141s-0.032 0.097-0.077 0.137c-0.044 0.040-0.064 0.101-0.056 0.161 0.016 0.073 0 0.105-0.064 0.125-0.048 0.012-0.085 0.056-0.085 0.093s-0.044 0.109-0.097 0.165c-0.097 0.105-0.282 0.58-0.431 1.112-0.105 0.359-0.089 0.733 0.036 0.987 0.048 0.101 0.218 0.318 0.379 0.488 0.347 0.359 0.613 0.488 1.024 0.488 0.322 0.004 0.455-0.060 1.31-0.625 0.673-0.447 0.794-0.552 1.177-1.012 0.085-0.101 0.169-0.185 0.181-0.185 0.016 0 0.052 0.141 0.081 0.31 0.052 0.326 0.201 0.697 0.407 0.995 0.069 0.101 0.125 0.189 0.125 0.201s-0.161 0.024-0.359 0.024h-0.359l-0.774 0.822v1.83l-0.33 0.242c-0.673 0.488-1.342 1.165-1.386 1.407-0.016 0.097-0.048 0.133-0.101 0.133-0.044 0-0.089 0.032-0.105 0.069-0.012 0.040-0.093 0.165-0.173 0.274-0.085 0.113-0.189 0.278-0.238 0.371-0.044 0.093-0.101 0.177-0.125 0.193-0.020 0.012-0.040 0.069-0.040 0.121s-0.064 0.169-0.141 0.262c-0.077 0.093-0.133 0.185-0.121 0.201 0.036 0.056-0.056 0.242-0.121 0.242-0.032 0-0.060 0.028-0.060 0.060 0 0.085-0.189 0.383-0.262 0.407-0.032 0.012-0.177-0.081-0.343-0.218-0.447-0.379-0.693-0.395-1.213-0.089-0.693 0.411-1.378 1.124-1.709 1.785-0.218 0.427-0.463 1.177-0.492 1.479-0.024 0.302 0.093 0.52 0.403 0.742 0.197 0.137 0.266 0.165 0.484 0.177 0.238 0.016 0.262 0.008 0.419-0.117 0.556-0.447 0.762-0.633 1.108-1 0.21-0.222 0.391-0.407 0.403-0.407s0.036 0.085 0.048 0.193c0.060 0.415 0.387 0.858 0.818 1.104 0.31 0.181 0.629 0.145 1.177-0.129 0.27-0.133 0.975-0.778 1.298-1.185 0.089-0.105 0.258-0.302 0.375-0.435l0.218-0.238 0.197 0.069 0.193 0.069 0.492-0.149c0.488-0.145 0.617-0.169 0.617-0.121 0 0.016-0.060 0.129-0.137 0.254-0.363 0.605-0.572 1.173-0.613 1.677-0.044 0.504 0.117 0.83 0.548 1.133 0.351 0.242 0.463 0.238 0.858-0.024 0.222-0.149 0.435-0.355 0.822-0.798 0.669-0.762 1.362-1.459 1.451-1.459 0.036 0 0.141-0.081 0.234-0.181l0.169-0.181-0.020 0.197c-0.028 0.31 0.060 0.717 0.238 1.076 0.197 0.399 0.403 0.649 0.617 0.746 0.298 0.133 0.903 0.081 1.161-0.105 0.073-0.052 0.246-0.161 0.383-0.246 0.137-0.081 0.367-0.242 0.508-0.355 0.145-0.113 0.347-0.266 0.447-0.339 0.105-0.069 0.23-0.197 0.278-0.282l0.089-0.149 0.012 0.181c0.016 0.286 0.040 0.355 0.201 0.532 0.201 0.222 0.48 0.395 0.629 0.391 0.31-0.008 0.455-0.129 1.028-0.862 0.085-0.113 0.214-0.254 0.282-0.318l0.125-0.121v0.33c0 0.399 0.060 0.568 0.294 0.81 0.387 0.399 0.665 0.484 1.116 0.339 0.185-0.060 0.27-0.133 0.717-0.605 0.278-0.294 0.512-0.528 0.52-0.524 0.008 0.008-0.052 0.153-0.129 0.322-0.189 0.415-0.185 0.492 0.052 0.717 0.459 0.447 0.629 0.435 0.903-0.044 0.056-0.101 0.23-0.347 0.383-0.544 0.153-0.201 0.399-0.536 0.548-0.746 0.242-0.347 0.971-1.124 1.012-1.084 0.012 0.008-0.008 0.137-0.040 0.286-0.028 0.149-0.044 0.298-0.032 0.334 0.016 0.036 0 0.060-0.036 0.060-0.077 0-0.165 0.214-0.129 0.322 0.016 0.048 0.004 0.113-0.024 0.149-0.032 0.032-0.056 0.129-0.060 0.21s-0.020 0.185-0.036 0.238c-0.024 0.077 0.008 0.133 0.23 0.351 0.189 0.193 0.29 0.262 0.367 0.262 0.133 0 0.407-0.238 0.512-0.447 0.044-0.081 0.157-0.214 0.254-0.294s0.226-0.238 0.29-0.355c0.238-0.451 0.343-0.476 0.33-0.081-0.008 0.23 0.008 0.298 0.101 0.455 0.218 0.375 0.693 0.721 0.979 0.721 0.153 0 0.512-0.105 0.705-0.201 0.246-0.125 0.979-0.939 1.169-1.294 0.149-0.286 0.137-0.359-0.060-0.359-0.105 0-0.181 0.036-0.298 0.141-0.085 0.077-0.173 0.141-0.197 0.141s-0.081 0.056-0.129 0.121c-0.048 0.069-0.121 0.121-0.161 0.121-0.044 0-0.125 0.044-0.185 0.101s-0.129 0.101-0.157 0.101c-0.024 0-0.089 0.044-0.141 0.101s-0.121 0.101-0.149 0.101c-0.028 0-0.149 0.052-0.266 0.121-0.27 0.149-0.431 0.161-0.431 0.028 0-0.157 0.282-0.927 0.588-1.612 0.137-0.298 0.141-0.322 0.097-0.528-0.040-0.201-0.060-0.23-0.282-0.383-0.129-0.089-0.254-0.165-0.278-0.165-0.069 0-0.959 0.842-1.080 1.024-0.113 0.169-0.613 0.709-0.661 0.709-0.024 0 0.093-0.717 0.145-0.883 0.081-0.254-0.173-0.625-0.54-0.79l-0.165-0.073-0.218 0.149c-0.197 0.137-0.476 0.407-0.899 0.875-0.242 0.27-0.27 0.282-0.234 0.085 0.032-0.193-0.012-0.274-0.246-0.451-0.254-0.193-0.29-0.173-0.52 0.27-0.149 0.294-0.226 0.399-0.294 0.415-0.089 0.020-0.262 0.173-1.153 1.004-0.713 0.665-1.225 0.995-1.314 0.85-0.044-0.069-0.004-0.383 0.081-0.685 0.044-0.145 0.101-0.355 0.133-0.463 0.056-0.189 0.326-0.754 0.786-1.612 0.105-0.201 0.21-0.423 0.238-0.496 0.044-0.125 0.048-0.129 0.29-0.129h0.246v-1.934h-1.048v0.846h-1.088v-1.612h1.415l-0.012-0.536-0.012-0.532-0.693-0.012-0.697-0.008v-1.616l1.068 0.024 0.012 0.411 0.012 0.415h1.044v-1.894h-1.39c-0.919 0-1.39-0.012-1.39-0.040 0-0.064 0.189-0.351 0.524-0.786 0.169-0.222 0.387-0.52 0.484-0.665 0.169-0.25 0.951-1.080 0.983-1.044 0.012 0.008-0.008 0.141-0.040 0.294-0.032 0.149-0.048 0.29-0.036 0.306 0.012 0.020-0.024 0.085-0.085 0.141-0.085 0.085-0.101 0.133-0.081 0.226 0.016 0.077 0 0.157-0.036 0.214-0.036 0.052-0.052 0.125-0.036 0.161 0.012 0.036 0.004 0.117-0.024 0.181-0.064 0.153 0.016 0.302 0.27 0.524 0.27 0.23 0.387 0.226 0.633-0.036 0.101-0.109 0.185-0.222 0.185-0.246 0-0.028 0.093-0.137 0.21-0.246 0.117-0.105 0.282-0.314 0.375-0.463 0.089-0.153 0.197-0.278 0.238-0.286 0.069-0.016 0.073 0.004 0.048 0.21-0.024 0.193-0.016 0.258 0.073 0.447 0.121 0.262 0.427 0.58 0.689 0.705 0.153 0.077 0.234 0.089 0.431 0.069 0.359-0.032 0.774-0.25 1.004-0.52 0.097-0.117 0.282-0.33 0.411-0.472 0.246-0.27 0.492-0.697 0.455-0.79-0.036-0.097-0.351-0.028-0.476 0.105-0.060 0.064-0.133 0.117-0.161 0.117s-0.105 0.064-0.165 0.145c-0.073 0.089-0.141 0.133-0.177 0.121-0.032-0.012-0.097 0.020-0.149 0.077s-0.113 0.101-0.137 0.101c-0.024 0-0.109 0.052-0.181 0.121-0.077 0.064-0.149 0.109-0.161 0.097s-0.093 0.024-0.181 0.085c-0.089 0.060-0.238 0.117-0.326 0.129-0.157 0.020-0.165 0.016-0.165-0.085 0-0.125 0.258-0.838 0.528-1.463 0.242-0.548 0.238-0.709 0-0.935-0.226-0.218-0.367-0.29-0.459-0.238-0.133 0.069-0.887 0.794-1.016 0.975-0.169 0.238-0.605 0.709-0.657 0.709-0.020 0-0.036-0.032-0.028-0.073 0.165-0.798 0.185-0.947 0.145-1.068-0.081-0.238-0.468-0.564-0.669-0.564-0.056 0-0.181 0.069-0.286 0.153-0.226 0.185-0.806 0.77-0.891 0.899-0.036 0.052-0.101 0.113-0.141 0.133-0.077 0.040-0.081 0.032-0.052-0.125 0.024-0.149 0.016-0.181-0.085-0.29-0.157-0.161-0.367-0.286-0.439-0.258-0.032 0.012-0.145 0.193-0.25 0.407-0.149 0.298-0.21 0.383-0.274 0.383-0.048 0-0.226 0.133-0.423 0.318-1.294 1.213-1.745 1.576-1.959 1.576-0.137 0-0.145-0.052-0.081-0.403 0.129-0.701 0.282-1.076 0.983-2.398 0.383-0.725 0.411-0.838 0.234-0.987-0.052-0.040-0.064-0.153-0.064-0.609v-0.56h-0.403v-4.312h0.403v-1.088h-1.894v1.084l0.383 0.024 0.012 1.145c0.004 0.633 0 1.137-0.016 1.124-0.012-0.012-0.334-0.774-0.717-1.689l-0.697-1.668-0.81-0.012-0.814-0.008v1.088h0.403v4.312h-0.403v1.088h1.894v-1.088h-0.403v-1.157c0-0.633 0.008-1.145 0.016-1.137s0.31 0.721 0.669 1.588c0.359 0.862 0.677 1.62 0.709 1.681l0.056 0.109 1.088 0.024-0.189 0.339c-0.105 0.185-0.214 0.343-0.238 0.355-0.028 0.008-0.133-0.048-0.242-0.129-0.226-0.173-0.548-0.343-0.729-0.383-0.218-0.052-0.439 0.032-0.681 0.25-0.25 0.23-0.677 0.733-0.842 0.999-0.064 0.101-0.149 0.218-0.185 0.262-0.040 0.044-0.125 0.193-0.193 0.33-0.137 0.274-0.443 0.564-1.185 1.124-0.653 0.492-1.338 0.782-1.882 0.794-0.294 0.008-0.298 0.008-0.359-0.113-0.036-0.077-0.060-0.242-0.060-0.443 0-0.371 0.093-0.621 0.375-1.004 0.145-0.197 0.177-0.222 0.246-0.185 0.044 0.024 0.081 0.056 0.081 0.077 0 0.016 0.069 0.069 0.157 0.117 0.121 0.069 0.222 0.089 0.455 0.089 0.524 0 0.85-0.234 1.145-0.822 0.173-0.347 0.181-0.564 0.036-0.858-0.133-0.262-0.451-0.564-0.633-0.596-0.435-0.081-1.31 0.552-2.023 1.463-0.129 0.161-0.306 0.339-0.399 0.395-0.093 0.060-0.234 0.165-0.31 0.234-0.077 0.073-0.282 0.218-0.455 0.322-0.169 0.105-0.407 0.274-0.524 0.375-0.326 0.278-0.983 0.697-1.334 0.85-0.335 0.145-0.592 0.197-0.766 0.153-0.101-0.024-0.105-0.040-0.105-0.302 0-0.351 0.129-0.725 0.536-1.58 0.367-0.762 1.040-1.862 1.205-1.967 0.036-0.024 0.318-0.077 0.625-0.125 0.306-0.044 0.617-0.097 0.693-0.121 0.109-0.032 0.153-0.024 0.206 0.020 0.056 0.048 0.238 0.060 1.072 0.060h1.004l0.867-0.867v-4.756l-0.867-0.867h-2.015l-0.415 0.415zM11.809 8.927v2.156h-1.531v-4.312h1.531v2.156zM16.738 13.042l0.117 0.101-0.286 0.298c-0.197 0.21-0.286 0.335-0.286 0.403 0 0.064-0.024 0.101-0.060 0.101-0.032 0-0.060 0.016-0.060 0.040 0 0.020-0.024 0.040-0.056 0.040-0.069 0-0.278 0.234-0.367 0.407-0.060 0.117-0.149 0.23-0.266 0.343-0.355 0.339-0.713 0.661-0.733 0.661-0.073 0-0.008-0.206 0.197-0.669 0.125-0.274 0.242-0.512 0.262-0.524s0.133-0.161 0.246-0.33c0.274-0.407 0.568-0.713 0.818-0.858 0.246-0.141 0.33-0.145 0.476-0.012zM12.756 13.3c-0.048 0.153-0.52 0.596-0.75 0.705-0.197 0.093-0.439 0.133-0.439 0.077 0-0.012 0.081-0.129 0.181-0.258 0.258-0.322 0.572-0.564 0.83-0.637 0.161-0.044 0.218-0.008 0.177 0.113zM16.129 15.528c0.012 0.339 0.024 0.395 0.129 0.548 0.069 0.093 0.206 0.238 0.31 0.318 0.109 0.081 0.193 0.161 0.197 0.177 0 0.020-0.137 0.032-0.302 0.032h-0.302v1.044l0.383 0.024 0.012 1.149c0.004 0.629-0.004 1.128-0.024 1.108-0.020-0.024-0.343-0.778-0.717-1.685l-0.681-1.64h-1.632v1.048h0.403v4.312h-0.403v1.088h1.894v-1.088h-0.403l0.004-1.161c0-0.637 0.012-1.137 0.020-1.116 0.008 0.024 0.306 0.729 0.657 1.572l0.641 1.532-0.173 0.028c-0.343 0.048-0.814 0.339-1.253 0.77-0.226 0.218-0.488 0.504-0.584 0.633-0.097 0.133-0.222 0.258-0.282 0.282-0.060 0.028-0.177 0.117-0.258 0.206-0.081 0.085-0.169 0.157-0.197 0.157-0.121 0-1.193 0.866-1.874 1.515-0.572 0.544-1.040 0.903-1.177 0.903-0.149 0 0.121-0.834 0.564-1.733 0.387-0.778 0.427-0.887 0.367-1.064-0.052-0.161-0.306-0.407-0.508-0.492-0.193-0.081-0.351-0.069-0.782 0.060-0.21 0.064-0.395 0.109-0.411 0.097-0.016-0.008 0.040-0.109 0.125-0.226s0.242-0.359 0.347-0.544l0.193-0.33h1.62l0.867-0.866v-4.756l-0.371-0.371c-0.423-0.423-0.423-0.407-0.008-0.637 0.141-0.081 0.391-0.25 0.552-0.375 0.157-0.129 0.359-0.278 0.439-0.33 0.085-0.056 0.181-0.161 0.222-0.234 0.097-0.177 0.133-0.161 0.133 0.056 0 0.246 0.089 0.423 0.298 0.596 0.274 0.222 0.427 0.282 0.653 0.246 0.218-0.032 0.298-0.101 0.721-0.621 0.347-0.431 0.508-0.609 0.544-0.609 0.020 0 0.040 0.169 0.048 0.375zM18.64 15.774c-0.177 0.391-0.181 0.516-0.016 0.681 0.073 0.069 0.109 0.133 0.081 0.141s-0.044 0.185-0.044 0.536v0.52h0.403v4.312h-0.407l0.012 0.532 0.012 0.536 0.387 0.040-0.347 0.403c-0.189 0.222-0.391 0.484-0.451 0.584-0.056 0.101-0.149 0.234-0.206 0.302-0.056 0.064-0.141 0.214-0.193 0.326-0.069 0.161-0.173 0.278-0.439 0.504-0.536 0.459-1.096 0.866-1.378 1.004-0.572 0.282-1.249 0.451-1.471 0.367-0.129-0.048-0.173-0.21-0.165-0.621 0-0.23 0.024-0.318 0.145-0.564 0.081-0.161 0.21-0.363 0.286-0.451l0.137-0.161 0.137 0.129c0.173 0.165 0.306 0.214 0.592 0.214 0.508 0 0.871-0.254 1.149-0.81 0.214-0.427 0.185-0.766-0.085-1.084l-0.141-0.161h1.419v-1.088h-0.403l0.008-2.148 0.012-2.144 0.383-0.024v-1.040l-0.23-0.012c-0.23-0.012-0.234-0.012-0.129-0.073 0.060-0.032 0.322-0.29 0.584-0.572s0.48-0.508 0.488-0.5c0.008 0.008-0.052 0.153-0.129 0.322zM11.809 19.829v2.136h-1.531v-4.272h1.531v2.136zM9.189 20.465v0.399l-0.395 0.439c-0.218 0.242-0.496 0.54-0.617 0.661-0.278 0.282-0.734 0.625-0.754 0.568-0.032-0.097 0.536-1.056 0.971-1.636 0.246-0.326 0.705-0.826 0.762-0.826 0.016 0 0.032 0.177 0.032 0.395zM9.439 22.477l0.246 0.246-0.335 0.472c-0.185 0.258-0.431 0.588-0.552 0.733-0.117 0.145-0.214 0.298-0.214 0.343 0 0.040 0.036 0.145 0.081 0.23l0.077 0.153-0.335 0.318c-0.463 0.443-0.625 0.568-1.137 0.895-0.657 0.419-0.991 0.58-1.173 0.564l-0.153-0.012-0.012-0.29c-0.012-0.355 0.060-0.592 0.492-1.58 0.411-0.947 0.447-1.004 0.818-1.253 0.637-0.431 1.092-0.794 1.503-1.209l0.423-0.423 0.024 0.564 0.246 0.25zM20.881 23.182c-0.044 0.073-0.105 0.137-0.133 0.141s-0.125-0.052-0.21-0.129l-0.157-0.141h0.584l-0.085 0.129zM5.521 23.371c0.020 0.044 0.040 0.121 0.040 0.173s0.036 0.161 0.077 0.246l0.077 0.149-0.109 0.153c-0.121 0.161-0.278 0.318-1.257 1.245-0.58 0.552-1.169 1.020-1.286 1.020-0.153 0 0.109-0.661 0.625-1.572 0.157-0.286 0.564-0.721 1.008-1.084 0.294-0.246 0.411-0.318 0.58-0.371 0.165-0.048 0.202-0.040 0.246 0.040zM20.413 23.472l0.121 0.097-0.294 0.306c-0.181 0.193-0.29 0.339-0.29 0.399 0 0.064-0.044 0.109-0.157 0.161-0.101 0.052-0.201 0.153-0.302 0.302-0.173 0.274-0.266 0.395-0.347 0.472-0.629 0.588-0.746 0.681-0.758 0.601-0.012-0.089 0.298-0.838 0.427-1.028 0.036-0.056 0.157-0.238 0.266-0.403 0.371-0.552 0.871-1.004 1.108-1.004 0.060 0 0.157 0.044 0.226 0.097zM16.443 23.653c0 0.185-0.516 0.681-0.862 0.826-0.157 0.064-0.347 0.085-0.347 0.036 0-0.012 0.077-0.125 0.173-0.246 0.351-0.459 1.036-0.866 1.036-0.617z"></path>
<path d="M18.688 5.711c-0.016 0.012-0.028 0.258-0.028 0.544v0.516h0.403v4.312h-0.407l0.012 0.532 0.012 0.536 1.793 0.012c0.987 0.004 1.814 0 1.834-0.008 0.024-0.008 0.036-0.359 0.028-0.967l-0.012-0.951h-1.044v0.846h-1.088v-1.612h1.411v-1.088h-1.411v-1.612h1.088v0.846h1.048v-1.934h-1.806c-0.995 0-1.822 0.012-1.834 0.028z"></path>
</symbol>
</defs>
</svg>
